<?xml version="1.0" encoding="UTF-8" standalone="no"?>
<!-- Created with Inkscape (http://www.inkscape.org/) -->

<svg
   width="646.93445mm"
   height="404.81516mm"
   viewBox="0 0 646.93444 404.81516"
   version="1.1"
   id="svg1"
   inkscape:version="1.4.2 (f4327f4, 2025-05-13)"
   sodipodi:docname="σχεδίαση-teliko.svg"
   xmlns:inkscape="http://www.inkscape.org/namespaces/inkscape"
   xmlns:sodipodi="http://sodipodi.sourceforge.net/DTD/sodipodi-0.dtd"
   xmlns="http://www.w3.org/2000/svg"
   xmlns:svg="http://www.w3.org/2000/svg">
  <sodipodi:namedview
     id="namedview1"
     pagecolor="#ffffff"
     bordercolor="#999999"
     borderopacity="1"
     inkscape:showpageshadow="2"
     inkscape:pageopacity="0"
     inkscape:pagecheckerboard="0"
     inkscape:deskcolor="#d1d1d1"
     inkscape:document-units="mm"
     inkscape:zoom="0.27"
     inkscape:cx="1181.4815"
     inkscape:cy="750"
     inkscape:window-width="1680"
     inkscape:window-height="987"
     inkscape:window-x="-8"
     inkscape:window-y="-8"
     inkscape:window-maximized="1"
     inkscape:current-layer="layer1"
     showgrid="false"
     showguides="false" />
  <defs
     id="defs1">
    <rect
       x="857.42574"
       y="648.51485"
       width="167.32673"
       height="46.534653"
       id="rect3" />
    <rect
       x="698.14815"
       y="285.18519"
       width="233.33333"
       height="25.925926"
       id="rect2" />
    <rect
       x="577.77778"
       y="46.296296"
       width="29.62963"
       height="50"
       id="rect1" />
    <rect
       x="561.03896"
       y="42.857143"
       width="76.623377"
       height="51.948052"
       id="rect112" />
    <rect
       x="1727.2727"
       y="1379.2208"
       width="59.74026"
       height="35.064935"
       id="rect111" />
    <rect
       x="1801.2987"
       y="961.03896"
       width="37.662338"
       height="35.064935"
       id="rect110" />
    <rect
       x="1655.8442"
       y="953.24675"
       width="22.077922"
       height="31.168831"
       id="rect109" />
    <rect
       x="459.74026"
       y="964.93506"
       width="36.363636"
       height="32.467532"
       id="rect108" />
    <rect
       x="519.48052"
       y="685.71429"
       width="25.974026"
       height="29.87013"
       id="rect107" />
    <rect
       x="480.51948"
       y="261.03896"
       width="37.662338"
       height="42.857143"
       id="rect106" />
    <rect
       x="1787.9699"
       y="1171.4286"
       width="52.631579"
       height="33.834586"
       id="rect105" />
    <rect
       x="1514.2857"
       y="1419.5489"
       width="46.616541"
       height="36.090226"
       id="rect104" />
    <rect
       x="1043.609"
       y="1304.5113"
       width="36.090226"
       height="30.075188"
       id="rect103" />
    <rect
       x="1035.3383"
       y="487.21805"
       width="36.090226"
       height="30.075188"
       id="rect102" />
    <rect
       x="448.87218"
       y="474.43609"
       width="42.105263"
       height="37.593985"
       id="rect101" />
    <rect
       x="868.51852"
       y="40.740741"
       width="25.925926"
       height="37.037037"
       id="rect100" />
    <rect
       x="1071.1358"
       y="44.521538"
       width="86.424162"
       height="49.759366"
       id="rect99" />
    <rect
       x="1071.1357"
       y="44.521538"
       width="86.424164"
       height="49.759365"
       id="rect99-0" />
    <rect
       x="1071.1357"
       y="44.521538"
       width="86.424164"
       height="49.759365"
       id="rect99-09" />
  </defs>
  <g
     inkscape:label="Στρώση 1"
     inkscape:groupmode="layer"
     id="layer1"
     transform="translate(286.2635,132.44353)">
    <path
       style="fill:none;fill-opacity:0;stroke:#000000;stroke-width:0.827901;stroke-dasharray:none"
       d="m -124.37467,243.20286 c 92.973675,0 92.973675,0 92.973675,0"
       id="path4" />
    <path
       style="fill:none;fill-opacity:0;stroke:#000000;stroke-width:0.827901;stroke-dasharray:none"
       d="m -124.51655,256.05831 c 120.7912686,0 120.7912686,0 120.7912686,0"
       id="path4-8" />
    <path
       style="fill:none;fill-opacity:0;stroke:#000000;stroke-width:0.827901;stroke-dasharray:none"
       d="m -124.11605,155.88254 c 0,86.92997 0,86.92997 0,86.92997"
       id="path5" />
    <path
       style="fill:none;fill-opacity:0;stroke:#000000;stroke-width:0.827901;stroke-dasharray:none"
       d="m -124.05161,156.14862 c -13.24647,0 -13.24647,0 -13.24647,0"
       id="path6" />
    <path
       style="fill:none;fill-opacity:0;stroke:#000000;stroke-width:0.827901;stroke-dasharray:none"
       d="m -136.88419,156.07236 c 0,-63.831448 0,-63.831448 0,-63.831448"
       id="path7" />
    <path
       style="fill:none;fill-opacity:0;stroke:#000000;stroke-width:0.827901;stroke-dasharray:none"
       d="m -137.34319,92.572738 c 7.53392,0 7.53392,0 7.53392,0"
       id="path8" />
    <path
       style="fill:none;fill-opacity:0;stroke:#000000;stroke-width:0.827901;stroke-dasharray:none"
       d="m -130.2112,92.642338 c 0,-61.264926 0,-61.264926 0,-61.264926"
       id="path9" />
    <path
       style="fill:none;fill-opacity:0;stroke:#000000;stroke-width:0.827901;stroke-dasharray:none"
       d="m -130.49941,31.377412 c 5.71254,0 5.71254,0 5.71254,0"
       id="path10" />
    <path
       style="fill:none;fill-opacity:0;stroke:#000000;stroke-width:0.827901;stroke-dasharray:0.827901, 3.31163;stroke-dashoffset:0"
       d="m -125.31139,31.783196 c 0,-29.8045596 0,-29.8045596 0,-29.8045596"
       id="path11" />
    <path
       style="fill:none;fill-opacity:0;stroke:#000000;stroke-width:0.827901;stroke-dasharray:none"
       d="m -125.07508,2.1151677 c -5.71256,0 -5.71256,0 -5.71256,0"
       id="path12" />
    <path
       style="fill:none;fill-opacity:0;stroke:#000000;stroke-width:0.827901;stroke-dasharray:none"
       d="m -130.49941,2.5614392 c 0,-93.9671552 0,-93.9671552 0,-93.9671552"
       id="path13" />
    <path
       style="fill:none;fill-opacity:0;stroke:#000000;stroke-width:0.827901;stroke-dasharray:none"
       d="m -130.49941,-91.117489 c 4.63627,0 4.63627,0 4.63627,0"
       id="path14" />
    <path
       style="fill:none;fill-opacity:0;stroke:#000000;stroke-width:0.826191;stroke-dasharray:none"
       d="m -119.44014,-100.96957 c 24.703105,0 24.703105,0 24.703105,0"
       id="path15" />
    <path
       style="fill:none;fill-opacity:0;stroke:#000000;stroke-width:0.827901;stroke-dasharray:none"
       d="m -94.321159,-101.5918 c 0,9.852074 0,9.852074 0,9.852074"
       id="path16" />
    <path
       style="opacity:0.802326;fill:none;fill-opacity:0;stroke:#000000;stroke-width:0.827901;stroke-dasharray:none"
       d="m -125.76257,-91.17814 c 60.437022,0 60.437022,0 60.437022,0"
       id="path17" />
    <path
       style="opacity:1;fill:none;fill-opacity:0;stroke:#000000;stroke-width:0.827901;stroke-dasharray:none"
       d="m -65.215494,-91.160178 c 18.710639,0 18.710639,0 18.710639,0"
       id="path18" />
    <path
       style="opacity:1;fill:none;fill-opacity:0;stroke:#000000;stroke-width:0.827901;stroke-dasharray:none"
       d="m -46.28069,-91.087085 c 0,-33.116175 0,-33.116175 0,-33.116175"
       id="path19" />
    <path
       style="opacity:1;fill:none;fill-opacity:0;stroke:#000000;stroke-width:0.827901;stroke-dasharray:none"
       d="m 14.919982,-91.087102 c 0,-33.116168 0,-33.116168 0,-33.116168"
       id="path20" />
    <path
       style="opacity:1;fill:none;fill-opacity:0;stroke:#000000;stroke-width:0.827901;stroke-dasharray:none"
       d="m 14.607698,-91.531456 c 48.018459,0 48.018459,0 48.018459,0"
       id="path21" />
    <path
       style="opacity:1;fill:none;fill-opacity:0;stroke:#000000;stroke-width:0.827901;stroke-dasharray:none"
       d="m 63.256563,-91.288066 c 24.837136,0 24.837136,0 24.837136,0"
       id="path22" />
    <path
       style="fill:#000000;stroke:#000000;stroke-width:0.827901;stroke-dasharray:none;stroke-opacity:1"
       d="m 62.761526,-92.261616 c 0,95.1262256 0,95.1262256 0,95.1262256"
       id="path1" />
    <path
       style="opacity:0.332;fill:#000000;stroke:#000000;stroke-width:0.827901;stroke-dasharray:none;stroke-opacity:1"
       d="m -40.922004,-120.25131 c 51.59837,0 51.59837,0 51.59837,0"
       id="path2" />
    <path
       style="opacity:0.332;fill:#000000;stroke:#000000;stroke-width:0.827901;stroke-dasharray:none;stroke-opacity:1"
       d="m -40.751634,-94.378906 c 51.598361,0 51.598361,0 51.598361,0"
       id="path2-1" />
    <path
       style="opacity:0.332;fill:#000000;stroke:#000000;stroke-width:0.827901;stroke-dasharray:none;stroke-opacity:1"
       d="m -41.238414,-100.22024 c 51.598374,0 51.598374,0 51.598374,0"
       id="path2-2" />
    <path
       style="opacity:0.332;fill:#000000;stroke:#000000;stroke-width:0.827901;stroke-dasharray:none;stroke-opacity:1"
       d="m -40.995024,-107.27851 c 51.598367,0 51.598367,0 51.598367,0"
       id="path2-23" />
    <path
       style="opacity:0.332;fill:#000000;stroke:#000000;stroke-width:0.827901;stroke-dasharray:none;stroke-opacity:1"
       d="m -40.995024,-114.09338 c 51.598367,0 51.598367,0 51.598367,0"
       id="path2-8" />
    <path
       style="opacity:0.332;fill:#000000;stroke:#000000;stroke-width:0.827901;stroke-dasharray:none;stroke-opacity:1"
       d="m -102.46332,-98.476986 c 0,6.08474 0,6.08474 0,6.08474"
       id="path3-6" />
    <path
       style="opacity:0.332;fill:#000000;stroke:#000000;stroke-width:0.827901;stroke-dasharray:none;stroke-opacity:1"
       d="m -105.95524,-98.638386 c 0,6.08471 0,6.08471 0,6.08471"
       id="path3-60" />
    <path
       style="opacity:0.332;fill:#000000;stroke:#000000;stroke-width:0.827901;stroke-dasharray:none;stroke-opacity:1"
       d="m -98.074664,-98.476986 c 0,6.08474 0,6.08474 0,6.08474"
       id="path3-8" />
    <path
       style="opacity:0.332;fill:#000000;stroke:#000000;stroke-width:0.827901;stroke-dasharray:none;stroke-opacity:1"
       d="m -109.50679,-99.595126 c 0,6.08474 0,6.08474 0,6.08474"
       id="path3-8-1" />
    <path
       style="opacity:0.332;fill:#000000;stroke:#000000;stroke-width:0.827901;stroke-dasharray:none;stroke-opacity:1"
       d="m -112.74525,-99.999936 c 0,6.08474 0,6.08474 0,6.08474"
       id="path3-8-2" />
    <path
       style="opacity:0.332;fill:#000000;stroke:#000000;stroke-width:0.651085;stroke-dasharray:none;stroke-opacity:1"
       d="m 88.755637,-89.900733 c 0,28.148744 0,28.148744 0,28.148744"
       id="path25-6" />
    <path
       style="opacity:0.332;fill:#000000;stroke:#000000;stroke-width:0.651085;stroke-dasharray:none;stroke-opacity:1"
       d="m 78.736949,-90.436204 c 0,28.148754 0,28.148754 0,28.148754"
       id="path25-6-5" />
    <path
       style="opacity:0.332;fill:#000000;stroke:#000000;stroke-width:0.651085;stroke-dasharray:none;stroke-opacity:1"
       d="m 82.144394,-89.94942 c 0,28.148749 0,28.148749 0,28.148749"
       id="path25-6-1" />
    <path
       style="opacity:0.332;fill:#000000;stroke:#000000;stroke-width:0.651085;stroke-dasharray:none;stroke-opacity:1"
       d="m 85.308443,-89.94942 c 0,28.148749 0,28.148749 0,28.148749"
       id="path25-6-7" />
    <rect
       style="opacity:0.258;fill:#000000;stroke:#000000;stroke-width:0.595929;stroke-dasharray:none;stroke-opacity:1"
       id="rect26"
       width="90.89257"
       height="9.6118832"
       x="-123.48004"
       y="244.72891" />
    <path
       style="opacity:1;fill:#000000;stroke:#000000;stroke-width:0.812041;stroke-dasharray:none;stroke-opacity:1"
       d="m -31.285376,242.74886 c 0,-31.85933 0,-31.85933 0,-31.85933"
       id="path26" />
    <path
       style="opacity:1;fill:#000000;stroke:#000000;stroke-width:0.74167;stroke-dasharray:none;stroke-opacity:1"
       d="m -31.754378,211.64293 c 45.445689,0 45.445689,0 45.445689,0"
       id="path27" />
    <path
       style="fill:#000000;stroke:#000000;stroke-width:0.757264;stroke-dasharray:none;stroke-opacity:1"
       d="m 34.205442,211.87525 c 14.241605,0 14.241605,0 14.241605,0"
       id="path27-1" />
    <path
       style="opacity:1;fill:#000000;stroke:#000000;stroke-width:0.756517;stroke-dasharray:none;stroke-opacity:1"
       d="m 47.723272,212.27406 c 0,38.02061 0,38.02061 0,38.02061"
       id="path29" />
    <rect
       style="opacity:1;fill:#000000;stroke:#000000;stroke-width:1.16085;stroke-dasharray:none;stroke-opacity:1"
       id="rect30"
       width="6.5978942"
       height="6.5978942"
       x="-7.2161837"
       y="237.42349" />
    <path
       style="opacity:1;fill:#000000;stroke:#000000;stroke-width:0.827901;stroke-dasharray:0.827901, 3.31163;stroke-dashoffset:0;stroke-opacity:1"
       d="m 35.826741,3.0441459 c 0,29.2250271 0,29.2250271 0,29.2250271"
       id="path32" />
    <path
       style="fill:none;fill-opacity:0;stroke:#000000;stroke-width:0.827901;stroke-dasharray:none"
       d="m 78.581783,-60.864494 c 9.934855,0 9.934855,0 9.934855,0"
       id="path23" />
    <path
       style="fill:none;fill-opacity:0;stroke:#000000;stroke-width:0.827901;stroke-dasharray:none"
       d="M 85.12112,3.792112 C 99.75653,-10.843312 99.75653,-10.843312 99.75653,-10.843312"
       id="path28" />
    <path
       style="fill:none;fill-opacity:0;stroke:#000000;stroke-width:0.827901;stroke-dasharray:none"
       d="m 99.756593,-60.864494 c 0,50.381441 0,50.381441 0,50.381441"
       id="path36" />
    <path
       style="fill:none;fill-opacity:0;stroke:#000000;stroke-width:0.827901;stroke-dasharray:none"
       d="m 88.27556,-60.822726 c 0,46.000436 0,46.000436 0,46.000436"
       id="path38" />
    <path
       style="fill:none;fill-opacity:0;stroke:#000000;stroke-width:0.827901;stroke-dasharray:none"
       d="m 88.637078,-15.082975 c -5.11118,4.867772 -5.11118,4.867772 -5.11118,4.867772"
       id="path39" />
    <path
       style="fill:none;fill-opacity:0;stroke:#000000;stroke-width:0.827901;stroke-dasharray:none"
       d="m 85.325368,3.7047722 c -3.544947,0 -3.544947,0 -3.544947,0"
       id="path40" />
    <rect
       style="opacity:0.331395;fill:#000000;fill-opacity:1;stroke:#000000;stroke-width:0.827901;stroke-dasharray:none"
       id="rect40"
       width="8.0887814"
       height="45.434853"
       x="89.821381"
       y="-60.208946" />
    <path
       style="opacity:0.331395;fill:#000000;fill-opacity:1;stroke:#000000;stroke-width:0.815878;stroke-dasharray:none"
       d="m 89.476419,-13.919501 c -6.200607,5.3441394 -6.200607,5.3441394 -6.200607,5.3441394 L 82.586851,2.6139306 h 1.894643 l 13.434663,-12.8593386 0.344468,-3.340085 z"
       id="path41" />
    <path
       style="opacity:0.331395;fill:#000000;fill-opacity:1;stroke:#000000;stroke-width:0.784058;stroke-dasharray:none"
       d="m 82.076821,4.5013065 c 0,27.3208475 0,27.3208475 0,27.3208475"
       id="path44" />
    <path
       style="opacity:0.331395;fill:#000000;fill-opacity:1;stroke:#000000;stroke-width:0.784058;stroke-dasharray:none"
       d="m 87.405567,4.5686196 c 0,27.3208484 0,27.3208484 0,27.3208484"
       id="path44-2" />
    <path
       style="opacity:0.331395;fill:#000000;fill-opacity:1;stroke:#000000;stroke-width:0.784058;stroke-dasharray:none"
       d="m 89.9871,4.5686186 c 0,27.3208464 0,27.3208464 0,27.3208464"
       id="path44-1" />
    <path
       style="opacity:0.331395;fill:#000000;fill-opacity:1;stroke:#000000;stroke-width:0.784058;stroke-dasharray:none"
       d="m 92.396506,4.2244172 c 0,27.3208448 0,27.3208448 0,27.3208448"
       id="path44-7" />
    <path
       style="opacity:0.331395;fill:#000000;fill-opacity:1;stroke:#000000;stroke-width:0.784058;stroke-dasharray:none"
       d="m 84.651942,4.7407213 c 0,27.3208477 0,27.3208477 0,27.3208477"
       id="path44-9" />
    <path
       style="opacity:1;fill:#000000;fill-opacity:1;stroke:#000000;stroke-width:0.754206;stroke-dasharray:none"
       d="m 68.65288,32.03758 c 24.423181,0 24.423181,0 24.423181,0"
       id="path45" />
    <rect
       style="opacity:0.5;fill:#000000;fill-opacity:1;stroke:#000000;stroke-width:0.858701;stroke-dasharray:none"
       id="rect47"
       width="3.5833325"
       height="25.956556"
       x="70.217247"
       y="33.085583" />
    <path
       style="opacity:1;fill:#000000;fill-opacity:1;stroke:#000000;stroke-width:0.829132;stroke-dasharray:none"
       d="m 52.991633,31.865479 c 0,27.983171 0,27.983171 0,27.983171"
       id="path48" />
    <path
       style="fill:#000000;fill-opacity:1;stroke:#000000;stroke-width:0.829132;stroke-dasharray:none"
       d="m 69.013219,31.870885 c 0,27.98317 0,27.98317 0,27.98317"
       id="path48-2" />
    <path
       style="opacity:1;fill:#000000;fill-opacity:1;stroke:#000000;stroke-width:0.827901;stroke-dasharray:none"
       d="m 52.819517,59.401752 c 15.730187,0 15.730187,0 15.730187,0"
       id="path49" />
    <path
       style="opacity:1;fill:#000000;fill-opacity:1;stroke:#000000;stroke-width:0.827901;stroke-dasharray:none"
       d="m 35.60934,32.03758 c 17.385988,0 17.385988,0 17.385988,0"
       id="path50" />
    <path
       style="opacity:1;fill:#000000;fill-opacity:1;stroke:#000000;stroke-width:0.827901;stroke-dasharray:none"
       d="m 35.781454,3.2965976 c 27.192062,0 27.192062,0 27.192062,0"
       id="path51" />
    <path
       style="opacity:1;fill:#000000;fill-opacity:1;stroke:#000000;stroke-width:0.827901;stroke-dasharray:none"
       d="m 68.824969,59.229652 c 72.027701,0 72.027701,0 72.027701,0"
       id="path52" />
    <path
       style="opacity:1;fill:#000000;fill-opacity:1;stroke:#000000;stroke-width:0.827901;stroke-dasharray:none"
       d="m 140.5914,59.057549 c 0,28.97666 0,28.97666 0,28.97666"
       id="path53" />
    <path
       style="opacity:1;fill:#000000;fill-opacity:1;stroke:#000000;stroke-width:0.827901;stroke-dasharray:none"
       d="m 139.77364,87.324979 c 63.74865,0 63.74865,0 63.74865,0"
       id="path54" />
    <path
       style="opacity:1;fill:#000000;fill-opacity:1;stroke:#000000;stroke-width:0.827901;stroke-dasharray:none"
       d="m 203.75272,87.626436 c 0,62.920734 0,62.920734 0,62.920734"
       id="path55" />
    <path
       style="opacity:1;fill:#000000;fill-opacity:1;stroke:#000000;stroke-width:0.827901;stroke-dasharray:none"
       d="m 203.75272,150.78774 c 31.46037,0 31.46037,0 31.46037,0"
       id="path56" />
    <path
       style="fill:#000000;fill-opacity:1;stroke:#000000;stroke-width:0.827901;stroke-dasharray:none"
       d="m 203.84242,181.20677 c 31.46035,0 31.46035,0 31.46035,0"
       id="path56-1" />
    <path
       style="opacity:0.331395;fill:#000000;fill-opacity:1;stroke:#000000;stroke-width:0.827901;stroke-dasharray:none"
       d="m 220.10238,151.47616 c 0,28.97666 0,28.97666 0,28.97666"
       id="path57" />
    <path
       style="opacity:0.331395;fill:#000000;fill-opacity:1;stroke:#000000;stroke-width:0.827901;stroke-dasharray:none"
       d="m 216.85363,151.30153 c 0,28.97663 0,28.97663 0,28.97663"
       id="path57-7" />
    <path
       style="opacity:0.331395;fill:#000000;fill-opacity:1;stroke:#000000;stroke-width:0.827901;stroke-dasharray:none"
       d="m 224.25401,151.47363 c 0,28.97666 0,28.97666 0,28.97666"
       id="path57-79" />
    <path
       style="opacity:0.331395;fill:#000000;fill-opacity:1;stroke:#000000;stroke-width:0.827901;stroke-dasharray:none"
       d="m 228.21234,150.95732 c 0,28.97666 0,28.97666 0,28.97666"
       id="path57-8" />
    <path
       style="opacity:0.331395;fill:#000000;fill-opacity:1;stroke:#000000;stroke-width:0.827901;stroke-dasharray:none"
       d="m 231.65437,151.30153 c 0,28.97663 0,28.97663 0,28.97663"
       id="path57-2" />
    <path
       style="opacity:0.331395;fill:#000000;fill-opacity:1;stroke:#000000;stroke-width:0.827901;stroke-dasharray:none"
       d="m 234.75221,151.30153 c 0,28.97663 0,28.97663 0,28.97663"
       id="path57-24" />
    <path
       style="opacity:1;fill:#000000;fill-opacity:1;stroke:#000000;stroke-width:0.827901;stroke-dasharray:none"
       d="m 203.58062,180.73345 c 0,62.92074 0,62.92074 0,62.92074"
       id="path59" />
    <path
       style="opacity:1;fill:#000000;fill-opacity:1;stroke:#000000;stroke-width:0.827901;stroke-dasharray:none"
       d="m 139.85773,243.3873 c 63.74864,0 63.74864,0 63.74864,0"
       id="path60" />
    <path
       style="opacity:1;fill:#000000;fill-opacity:1;stroke:#000000;stroke-width:0.827901;stroke-dasharray:none"
       d="m 139.88356,238.69633 c 0,4.96742 0,4.96742 0,4.96742"
       id="path61" />
    <path
       style="opacity:1;fill:#000000;fill-opacity:1;stroke:#000000;stroke-width:0.827901;stroke-dasharray:0.827901, 3.31163;stroke-dashoffset:0"
       d="m 110.53915,239.31626 c 29.80457,0 29.80457,0 29.80457,0"
       id="path62" />
    <path
       style="opacity:1;fill:#000000;fill-opacity:1;stroke:#000000;stroke-width:0.827901;stroke-dasharray:none"
       d="m 110.3325,238.90296 c 0,11.25951 0,11.25951 0,11.25951"
       id="path63" />
    <path
       style="opacity:1;fill:#000000;fill-opacity:1;stroke:#000000;stroke-width:0.827901;stroke-dasharray:none"
       d="m 47.717358,250.06211 c 62.920742,0 62.920742,0 62.920742,0"
       id="path64" />
    <path
       style="opacity:1;fill:#000000;fill-opacity:1;stroke:#000000;stroke-width:0.827901;stroke-dasharray:none"
       d="m -3.958869,244.04554 c 0,12.41858 0,12.41858 0,12.41858"
       id="path67" />
    <path
       style="opacity:0.331395;fill:#000000;fill-opacity:1;stroke:#000000;stroke-width:0.827901;stroke-dasharray:none"
       d="m -3.1571483,245.57589 c 49.1588333,0 49.1588333,0 49.1588333,0"
       id="path70" />
    <path
       style="opacity:0.331395;fill:#000000;fill-opacity:1;stroke:#000000;stroke-width:0.827901;stroke-dasharray:none"
       d="m -3.498472,255.66877 c 49.158832,0 49.158832,0 49.158832,0"
       id="path70-0" />
    <path
       style="opacity:0.331395;fill:#000000;fill-opacity:1;stroke:#000000;stroke-width:0.827901;stroke-dasharray:none"
       d="m -3.371117,252.99434 c 49.158831,0 49.158831,0 49.158831,0"
       id="path70-6" />
    <path
       style="opacity:0.331395;fill:#000000;fill-opacity:1;stroke:#000000;stroke-width:0.827901;stroke-dasharray:none"
       d="m -3.0018587,250.06518 c 49.1588187,0 49.1588187,0 49.1588187,0"
       id="path70-9" />
    <path
       style="opacity:0.331395;fill:#000000;fill-opacity:1;stroke:#000000;stroke-width:0.827901;stroke-dasharray:none"
       d="m -2.989054,247.64543 c 49.158831,0 49.158831,0 49.158831,0"
       id="path70-60" />
    <path
       style="opacity:1;fill:#000000;fill-opacity:1;stroke:#000000;stroke-width:0.831329;stroke-dasharray:none"
       d="m 13.133294,211.65619 c 0,15.50797 0,15.50797 0,15.50797"
       id="path71" />
    <path
       style="fill:#000000;fill-opacity:1;stroke:#000000;stroke-width:0.831329;stroke-dasharray:none"
       d="m 34.290564,211.58726 c 0,15.50799 0,15.50799 0,15.50799"
       id="path71-8" />
    <path
       style="opacity:1;fill:none;fill-opacity:1;stroke:#000000;stroke-width:0.831329;stroke-dasharray:0.831329, 0.831329;stroke-dashoffset:0;stroke-opacity:1"
       d="m 23.64165,217.42087 c 0,0 11.600345,21.98752 11.24882,0.2819"
       id="path72" />
    <path
       style="fill:none;fill-opacity:1;stroke:#000000;stroke-width:0.831329;stroke-dasharray:0.831329, 0.831329;stroke-dashoffset:0;stroke-opacity:1"
       d="m 24.237875,217.91705 c 0,0 -12.304219,20.46199 -11.931363,0.26235"
       id="path72-3" />
    <path
       style="fill:#000000;fill-opacity:1;stroke:#000000;stroke-width:0.627963;stroke-dasharray:none"
       d="m -124.22024,24.555614 c -11.49661,0 -11.49661,0 -11.49661,0"
       id="path71-7" />
    <path
       style="fill:#000000;fill-opacity:1;stroke:#000000;stroke-width:0.627963;stroke-dasharray:none"
       d="m -124.16915,8.2712981 c -11.49661,0 -11.49661,0 -11.49661,0"
       id="path71-8-5" />
    <path
       style="fill:none;fill-opacity:1;stroke:#000000;stroke-width:0.627963;stroke-dasharray:0.627963, 0.627963;stroke-dashoffset:0;stroke-opacity:1"
       d="m -128.4938,16.467549 c 0,0 -16.30013,-8.9285469 -0.20899,-8.657985"
       id="path72-4" />
    <path
       style="fill:none;fill-opacity:1;stroke:#000000;stroke-width:0.627532;stroke-dasharray:0.627532, 1.25507;stroke-dashoffset:0;stroke-opacity:1"
       d="m -128.86166,16.008645 c 0,0 -15.16918,9.470304 -0.19448,9.183326"
       id="path72-3-1" />
    <path
       style="fill:#000000;fill-opacity:1;stroke:#000000;stroke-width:0.677322;stroke-dasharray:none"
       d="m 203.22535,176.29714 c 10.63075,0 10.63075,0 10.63075,0"
       id="path71-5" />
    <path
       style="fill:#000000;fill-opacity:1;stroke:#000000;stroke-width:0.677322;stroke-dasharray:none"
       d="m 203.17809,155.80925 c 10.63077,0 10.63077,0 10.63077,0"
       id="path71-8-4" />
    <path
       style="fill:none;fill-opacity:1;stroke:#000000;stroke-width:0.677322;stroke-dasharray:0.677322, 0.677322;stroke-dashoffset:0;stroke-opacity:1"
       d="m 207.17705,166.12125 c 0,0 15.07251,-11.23333 0.19324,-10.89292"
       id="path72-2" />
    <path
       style="fill:none;fill-opacity:1;stroke:#000000;stroke-width:0.677322;stroke-dasharray:0.677322, 0.677322;stroke-dashoffset:0;stroke-opacity:1"
       d="m 207.51718,165.5439 c 0,0 14.02675,11.91493 0.17984,11.55387"
       id="path72-3-0" />
    <path
       style="fill:#000000;fill-opacity:1;stroke:#000000;stroke-width:0.59846;stroke-dasharray:none"
       d="m 35.740156,25.429862 c 10.686591,0 10.686591,0 10.686591,0"
       id="path71-5-7" />
    <path
       style="fill:#000000;fill-opacity:1;stroke:#000000;stroke-width:0.59846;stroke-dasharray:none"
       d="m 35.692663,9.518785 c 10.68659,0 10.68659,0 10.68659,0"
       id="path71-8-4-2" />
    <path
       style="fill:none;fill-opacity:1;stroke:#000000;stroke-width:0.59846;stroke-dasharray:0.59846, 0.59846;stroke-dashoffset:0;stroke-opacity:1"
       d="m 39.712618,17.527179 c 0,0 15.151664,-8.7239128 0.194253,-8.4595499"
       id="path72-2-6" />
    <path
       style="fill:none;fill-opacity:1;stroke:#000000;stroke-width:0.59846;stroke-dasharray:0.59846, 0.59846;stroke-dashoffset:0;stroke-opacity:1"
       d="m 40.054539,17.078788 c 0,0 14.100414,9.253245 0.180776,8.972841"
       id="path72-3-0-0" />
    <path
       style="fill:#000000;fill-opacity:1;stroke:#000000;stroke-width:0.752227;stroke-dasharray:none"
       d="m 45.145688,139.50503 c -9.498143,9.49814 -9.498143,9.49814 -9.498143,9.49814"
       id="path71-5-7-1" />
    <path
       style="fill:#000000;fill-opacity:1;stroke:#000000;stroke-width:0.752227;stroke-dasharray:none"
       d="m 31.046281,125.3212 c -9.498143,9.49813 -9.498143,9.49813 -9.498143,9.49813"
       id="path71-8-4-2-5" />
    <path
       style="fill:none;fill-opacity:1;stroke:#000000;stroke-width:0.752227;stroke-dasharray:0.752227, 0.752227;stroke-dashoffset:0;stroke-opacity:1"
       d="m 34.591168,136.01188 c 0,0 -21.220393,5.71292 -7.691422,-7.34612"
       id="path72-2-6-2" />
    <path
       style="fill:none;fill-opacity:1;stroke:#000000;stroke-width:0.752227;stroke-dasharray:0.752227, 0.752227;stroke-dashoffset:0;stroke-opacity:1"
       d="m 33.888746,135.91725 c 0,0 -4.308121,20.75652 7.814306,8.13565"
       id="path72-3-0-0-7" />
    <path
       style="fill:#000000;fill-opacity:1;stroke:#000000;stroke-width:0.66138;stroke-dasharray:none"
       d="m 117.32468,238.53916 c 0,12.30399 0,12.30399 0,12.30399"
       id="path71-2" />
    <path
       style="fill:#000000;fill-opacity:1;stroke:#000000;stroke-width:0.66138;stroke-dasharray:none"
       d="m 134.20288,238.48446 c 0,12.304 0,12.304 0,12.304"
       id="path71-8-9" />
    <path
       style="fill:none;fill-opacity:1;stroke:#000000;stroke-width:0.66138;stroke-dasharray:0.66138, 0.66138;stroke-dashoffset:0;stroke-opacity:1"
       d="m 125.70772,243.11283 c 0,0 9.25416,17.44487 8.97373,0.22365"
       id="path72-1" />
    <path
       style="fill:none;fill-opacity:1;stroke:#000000;stroke-width:0.66138;stroke-dasharray:0.66138, 0.66138;stroke-dashoffset:0;stroke-opacity:1"
       d="m 126.18336,243.50651 c 0,0 -9.81571,16.2345 -9.51824,0.20815"
       id="path72-3-3" />
    <path
       style="fill:#000000;fill-opacity:1;stroke:#000000;stroke-width:0.893708;stroke-dasharray:none"
       d="m -28.34557,-92.377756 c 0,-15.048424 0,-15.048424 0,-15.048424"
       id="path71-2-4" />
    <path
       style="fill:#000000;fill-opacity:1;stroke:#000000;stroke-width:0.893708;stroke-dasharray:none"
       d="m -3.147631,-92.310866 c 0,-15.048434 0,-15.048434 0,-15.048434"
       id="path71-8-9-0" />
    <path
       style="fill:none;fill-opacity:1;stroke:#000000;stroke-width:0.893708;stroke-dasharray:0.893708, 0.893708;stroke-dashoffset:0;stroke-opacity:1"
       d="m -15.830311,-97.971606 c 0,0 13.8158158,-21.335984 13.3971554,-0.27354"
       id="path72-1-7" />
    <path
       style="fill:none;fill-opacity:1;stroke:#000000;stroke-width:0.893708;stroke-dasharray:0.893708, 0.893708;stroke-dashoffset:0;stroke-opacity:1"
       d="m -15.120202,-98.453096 c 0,0 -14.654112,-19.855644 -14.210047,-0.25457"
       id="path72-3-3-6" />
    <path
       style="opacity:1;fill:none;fill-opacity:1;stroke:#000000;stroke-width:0.627533;stroke-dasharray:0.627533, 2.51013;stroke-dashoffset:0;stroke-opacity:1"
       d="m -46.469618,-91.689186 c 62.085642,0 62.085642,0 62.085642,0"
       id="path73" />
    <path
       style="opacity:1;fill:none;fill-opacity:1;stroke:#000000;stroke-width:0.627533;stroke-dasharray:0.627533, 2.51013;stroke-dashoffset:0;stroke-opacity:1"
       d="m 202.42727,150.00131 c 0,33.26017 0,33.26017 0,33.26017"
       id="path74" />
    <path
       style="opacity:1;fill:none;fill-opacity:1;stroke:#000000;stroke-width:0.757262;stroke-dasharray:0.757262, 3.02905;stroke-dashoffset:0;stroke-opacity:1"
       d="m 12.89473,211.67373 c 21.770295,0 21.770295,0 21.770295,0"
       id="path75" />
    <path
       style="fill:none;stroke:#000000;stroke-width:0.826191;stroke-dasharray:none;stroke-dashoffset:0"
       d="m 47.5971,173.96482 c 0,77.66194 0,77.66194 0,77.66194"
       id="path25" />
    <path
       style="fill:none;stroke:#000000;stroke-width:0.826191;stroke-dasharray:none;stroke-dashoffset:0"
       d="m 109.83231,172.81381 c 0,77.66194 0,77.66194 0,77.66194"
       id="path25-8" />
    <path
       style="fill:none;stroke:#000000;stroke-width:0.862296;stroke-dasharray:none;stroke-dashoffset:0"
       d="m 46.951439,173.35606 c 62.998611,0 62.998611,0 62.998611,0"
       id="path30" />
    <path
       style="fill:none;stroke:#000000;stroke-width:0.826191;stroke-dasharray:none;stroke-dashoffset:0"
       d="m 141.21722,182.35835 c 63.48507,0 63.48507,0 63.48507,0"
       id="path31" />
    <path
       style="fill:none;stroke:#000000;stroke-width:0.826191;stroke-dasharray:none;stroke-dashoffset:0"
       d="m 140.57156,181.7127 c 0,62.7905 0,62.7905 0,62.7905"
       id="path33" />
    <path
       style="fill:none;stroke:#000000;stroke-width:0.826191;stroke-dasharray:none;stroke-dashoffset:0"
       d="m 176.08263,86.801277 c 0,63.616673 0,63.616673 0,63.616673"
       id="path34" />
    <path
       style="fill:none;stroke:#000000;stroke-width:0.826191;stroke-dasharray:none;stroke-dashoffset:0"
       d="m 176.72829,150.72121 h 28.09049"
       id="path35"
       sodipodi:nodetypes="cc" />
    <path
       style="fill:none;stroke:#000000;stroke-width:0.826191;stroke-dasharray:none;stroke-dashoffset:0"
       d="m 140.57155,88.092584 c 0,62.790506 0,62.790506 0,62.790506"
       id="path42" />
    <path
       style="fill:none;stroke:#000000;stroke-width:0.895062;stroke-dasharray:none;stroke-dashoffset:0"
       d="m 140.57156,150.07555 c 34.90811,0 34.90811,0 34.90811,0"
       id="path43" />
    <path
       style="fill:none;stroke:#000000;stroke-width:0.826191;stroke-dasharray:none;stroke-dashoffset:0"
       d="m 54.05366,150.07556 c 85.92385,0 85.92385,0 85.92385,0"
       id="path46" />
    <path
       style="fill:none;stroke:#000000;stroke-width:0.826191;stroke-dasharray:none;stroke-dashoffset:0"
       d="m 21.125202,59.683725 c 119.797678,0 119.797678,0 119.797678,0"
       id="path47" />
    <path
       style="fill:none;stroke:#000000;stroke-width:0.826191;stroke-dasharray:none;stroke-dashoffset:0"
       d="m 21.770854,60.329381 c 0,57.833359 0,57.833359 0,57.833359"
       id="path58" />
    <path
       style="fill:#000000;stroke:#000000;stroke-width:0.826191;stroke-dasharray:none"
       d="m 21.713575,116.7389 c 33.656882,33.65689 33.656882,33.65689 33.656882,33.65689"
       id="path24" />
    <path
       style="fill:#000000;stroke:#000000;stroke-width:0.826191;stroke-dasharray:none"
       d="m 16.961965,3.3011 c 45.440497,0 45.440497,0 45.440497,0"
       id="path37" />
    <path
       style="fill:#000000;stroke:#000000;stroke-width:0.876523;stroke-dasharray:none"
       d="m 17.026268,-30.069511 c 0,33.4773067 0,33.4773067 0,33.4773067"
       id="path65" />
    <path
       style="fill:#000000;stroke:#000000;stroke-width:0.826191;stroke-dasharray:none"
       d="m 16.226521,-60.398932 c 45.440497,0 45.440497,0 45.440497,0"
       id="path37-6" />
    <path
       style="fill:#000000;stroke:#000000;stroke-width:0.826191;stroke-dasharray:none"
       d="m 16.290824,-90.035104 c 0,29.742868 0,29.742868 0,29.742868"
       id="path65-1" />
    <path
       style="fill:#000000;stroke:#000000;stroke-width:0.826191;stroke-dasharray:none"
       d="m 16.693326,-30.056631 c 45.440497,0 45.440497,0 45.440497,0"
       id="path37-2" />
    <path
       style="fill:#000000;stroke:#000000;stroke-width:0.826191;stroke-dasharray:none"
       d="m 16.757629,-59.692805 c 0,29.74287 0,29.74287 0,29.74287"
       id="path65-16" />
    <path
       style="fill:#000000;stroke:#000000;stroke-width:0.826191;stroke-dasharray:none"
       d="m -130.4607,2.149325 c 60.972878,0 60.972878,0 60.972878,0"
       id="path66" />
    <path
       style="fill:#000000;stroke:#000000;stroke-width:0.826191;stroke-dasharray:none"
       d="m -130.02351,-54.928416 c 60.972884,0 60.972884,0 60.972884,0"
       id="path66-1" />
    <path
       style="fill:#000000;stroke:#000000;stroke-width:0.826191;stroke-dasharray:none"
       d="m -69.253737,-55.341509 c 0,57.8333593 0,57.8333593 0,57.8333593"
       id="path68" />
    <path
       style="fill:#000000;stroke:#000000;stroke-width:0.91632;stroke-dasharray:none"
       d="m -69.253737,-90.754113 c 0,35.06147 0,35.06147 0,35.06147"
       id="path69" />
    <path
       style="fill:#000000;stroke:#000000;stroke-width:0.930489;stroke-dasharray:none"
       d="m -90.436597,-91.191306 c 0,36.154452 0,36.154452 0,36.154452"
       id="path69-9" />
    <path
       style="fill:#000000;stroke:#000000;stroke-width:0.826191;stroke-dasharray:none"
       d="m -90.020382,-55.122915 c 20.820009,0 20.820009,0 20.820009,0"
       id="path76" />
    <path
       style="fill:#000000;stroke:#000000;stroke-width:0.826191;stroke-dasharray:none"
       d="m -130.4607,31.441231 c 73.530975,0 73.530975,0 73.530975,0"
       id="path77" />
    <path
       style="fill:#000000;stroke:#000000;stroke-width:0.826191;stroke-dasharray:none"
       d="m -130.4607,92.624098 c 73.530975,0 73.530975,0 73.530975,0"
       id="path77-2" />
    <path
       style="fill:#000000;stroke:#000000;stroke-width:0.839649;stroke-dasharray:none"
       d="m -57.230936,31.004038 c 0,61.450995 0,61.866203 0,61.866203"
       id="path78" />
    <path
       style="fill:#000000;stroke:#000000;stroke-width:0.867905;stroke-dasharray:none"
       d="m -74.500048,93.303987 c 0,62.909263 0,62.909263 0,62.909263"
       id="path79" />
    <path
       style="fill:#000000;stroke:#000000;stroke-width:0.826191;stroke-dasharray:none"
       d="m -137.01859,156.04113 c 62.790494,0 62.790494,0 62.790494,0"
       id="path80" />
    <path
       style="fill:#000000;stroke:#000000;stroke-width:0.826191;stroke-dasharray:none"
       d="m -123.78747,156.55938 c 48.745255,0 48.745255,0 48.745255,0"
       id="path81" />
    <path
       style="fill:#000000;stroke:#000000;stroke-width:0.826191;stroke-dasharray:none"
       d="m -75.698739,156.27314 c 0,27.67738 0,27.67738 0,27.67738"
       id="path82" />
    <path
       style="fill:#000000;stroke:#000000;stroke-width:0.826191;stroke-dasharray:none"
       d="m -123.95174,184.04812 c 48.745266,0 48.745266,0 48.745266,0"
       id="path81-1" />
    <path
       style="fill:#000000;stroke:#000000;stroke-width:0.826191;stroke-dasharray:none"
       d="m -123.95174,211.34075 c 48.745266,0 48.745266,0 48.745266,0"
       id="path81-1-2" />
    <path
       style="fill:#000000;stroke:#000000;stroke-width:0.826191;stroke-dasharray:none"
       d="m -75.862999,183.76187 c 0,27.6774 0,27.6774 0,27.6774"
       id="path82-9" />
    <path
       style="fill:#000000;stroke:#000000;stroke-width:0.826191;stroke-dasharray:none"
       d="m -124.35995,211.2317 c 93.315042,0 93.315042,0 93.315042,0"
       id="path83" />
    <rect
       style="fill:#000000;stroke:#000000;stroke-width:0.826191;stroke-dasharray:none"
       id="rect86"
       width="10.018486"
       height="10.018486"
       x="-27.89624"
       y="177.74132" />
    <path
       style="fill:#000000;stroke:#000000;stroke-width:0.826191;stroke-dasharray:none"
       d="m -97.453171,-90.467872 c -8.051759,4.648688 -8.175709,4.720252 -8.175709,4.720252"
       id="path86" />
    <path
       style="fill:#000000;stroke:#000000;stroke-width:0.826191;stroke-dasharray:none"
       d="m -69.4014,-60.698652 c -4.563084,-7.9035 -4.563084,-7.9035 -4.563084,-7.9035"
       id="path87" />
    <path
       style="fill:#000000;stroke:#000000;stroke-width:0.826191;stroke-dasharray:none"
       d="m -69.4014,-48.96271 c -6.570544,11.380524 -6.570544,11.380524 -6.570544,11.380524"
       id="path88" />
    <path
       style="fill:#000000;stroke:#000000;stroke-width:0.826191;stroke-dasharray:none"
       d="m -57.379215,40.917429 c -6.870831,11.900623 -6.870831,11.900623 -6.870831,11.900623"
       id="path89" />
    <path
       style="fill:#000000;stroke:#000000;stroke-width:0.826191;stroke-dasharray:none"
       d="m -74.840008,103.60453 c -6.251093,10.82721 -6.251093,10.82721 -6.251093,10.82721"
       id="path90" />
    <path
       style="fill:#000000;stroke:#000000;stroke-width:0.826191;stroke-dasharray:none"
       d="m -75.984977,203.50315 c -5.593018,-9.68737 -5.593018,-9.68737 -5.593018,-9.68737"
       id="path91" />
    <path
       style="fill:#000000;stroke:#000000;stroke-width:0.826191;stroke-dasharray:none"
       d="m -75.984977,165.71916 c -5.006494,8.6715 -5.006494,8.6715 -5.006494,8.6715"
       id="path92" />
    <path
       style="fill:#000000;stroke:#000000;stroke-width:0.826191;stroke-dasharray:none"
       d="m -39.059701,211.2317 c -11.347308,6.55137 -11.347308,6.55137 -11.347308,6.55137"
       id="path93" />
    <path
       style="fill:#000000;stroke:#000000;stroke-width:0.826191;stroke-dasharray:none"
       d="m 55.972799,173.44769 c 11.809907,6.81844 11.809907,6.81844 11.809907,6.81844"
       id="path94" />
    <path
       style="fill:#000000;stroke:#000000;stroke-width:0.826191;stroke-dasharray:none"
       d="m 150.71908,183.17996 c 12.48713,7.20942 12.48713,7.20942 12.48713,7.20942"
       id="path95" />
    <path
       style="fill:#000000;stroke:#000000;stroke-width:0.826191;stroke-dasharray:none"
       d="m 183.06448,149.97581 c 8.95259,-5.16878 8.95259,-5.16878 8.95259,-5.16878"
       id="path96" />
    <path
       style="fill:#000000;stroke:#000000;stroke-width:0.826191;stroke-dasharray:none"
       d="M 168.17987,149.68957 C 157.2287,143.36692 157.2287,143.36692 157.2287,143.36692"
       id="path97" />
    <path
       style="fill:#000000;stroke:#000000;stroke-width:0.826191;stroke-dasharray:none"
       d="m 20.984892,32.043913 c 25.859773,0 25.859773,0 25.859773,0"
       id="path98" />
    <path
       style="fill:#000000;stroke:#000000;stroke-width:0.826191;stroke-dasharray:none"
       d="m 21.337469,31.75767 c 0,30.238584 0,30.238584 0,30.238584"
       id="path99" />
  </g>
</svg>
