<?xml version="1.0" encoding="UTF-8" standalone="no"?>
<!-- Created with Inkscape (http://www.inkscape.org/) -->

<svg
   width="210mm"
   height="297mm"
   viewBox="0 0 210 297"
   version="1.1"
   id="svg1"
   inkscape:version="1.4.2 (f4327f4, 2025-05-13)"
   sodipodi:docname="σχεδίαση-pano_orofos.svg"
   xmlns:inkscape="http://www.inkscape.org/namespaces/inkscape"
   xmlns:sodipodi="http://sodipodi.sourceforge.net/DTD/sodipodi-0.dtd"
   xmlns="http://www.w3.org/2000/svg"
   xmlns:svg="http://www.w3.org/2000/svg">
  <sodipodi:namedview
     id="namedview1"
     pagecolor="#ffffff"
     bordercolor="#000000"
     borderopacity="0.25"
     inkscape:showpageshadow="2"
     inkscape:pageopacity="0.0"
     inkscape:pagecheckerboard="0"
     inkscape:deskcolor="#d1d1d1"
     inkscape:document-units="mm"
     inkscape:zoom="0.71"
     inkscape:cx="357.04225"
     inkscape:cy="609.15493"
     inkscape:window-width="1680"
     inkscape:window-height="987"
     inkscape:window-x="-8"
     inkscape:window-y="-8"
     inkscape:window-maximized="1"
     inkscape:current-layer="svg1" />
  <defs
     id="defs1">
    <rect
       x="559.64915"
       y="702.79515"
       width="16.384182"
       height="15.521856"
       id="rect138" />
  </defs>
  <g
     inkscape:label="Στρώση 1"
     inkscape:groupmode="layer"
     id="layer1"
     style="stroke:#000000;stroke-opacity:1">
    <path
       style="fill:#000000;stroke:#000000;stroke-width:0.648842;stroke-opacity:1"
       d="m 159.87367,254.18375 c 42.85467,0 42.85467,0 42.85467,0"
       id="path1" />
    <path
       style="opacity:1;fill:#000000;stroke:#000000;stroke-width:0.588663;stroke-dasharray:none;stroke-opacity:1"
       d="m 36.110605,98.392737 c 0,11.125733 0,11.125733 0,11.125733"
       id="path81" />
    <path
       style="opacity:0.497093;fill:#000000;stroke:#000000;stroke-width:0.536065;stroke-dasharray:none;stroke-opacity:1"
       d="m 33.738182,99.072719 c 0,9.226341 0,9.226341 0,9.226341"
       id="path81-0" />
    <path
       style="opacity:1;fill:#000000;stroke:#000000;stroke-width:0.588663;stroke-dasharray:none;stroke-opacity:1"
       d="m 9.3291313,109.59917 c 27.0196327,0 27.0196327,0 27.0196327,0"
       id="path83" />
    <path
       style="opacity:0.497093;fill:#000000;stroke:#000000;stroke-width:0.536065;stroke-dasharray:none;stroke-opacity:1"
       d="m 31.458907,99.452599 c 0,9.226331 0,9.226331 0,9.226331"
       id="path84" />
    <path
       style="opacity:0.497093;fill:#000000;stroke:#000000;stroke-width:0.536065;stroke-dasharray:none;stroke-opacity:1"
       d="m 29.179633,99.072719 c 0,9.226341 0,9.226341 0,9.226341"
       id="path85" />
    <path
       style="opacity:0.497093;fill:#000000;stroke:#000000;stroke-width:0.536065;stroke-dasharray:none;stroke-opacity:1"
       d="m 26.90036,99.452599 c 0,9.226331 0,9.226331 0,9.226331"
       id="path86" />
    <path
       style="opacity:0.497093;fill:#000000;stroke:#000000;stroke-width:0.536065;stroke-dasharray:none;stroke-opacity:1"
       d="m 24.241205,99.262659 c 0,9.226331 0,9.226331 0,9.226331"
       id="path87" />
    <path
       style="opacity:0.497093;fill:#000000;stroke:#000000;stroke-width:0.536065;stroke-dasharray:none;stroke-opacity:1"
       d="m 21.96193,99.642538 c 0,9.226332 0,9.226332 0,9.226332"
       id="path88" />
    <path
       style="opacity:0.497093;fill:#000000;stroke:#000000;stroke-width:0.536065;stroke-dasharray:none;stroke-opacity:1"
       d="m 19.682656,99.262659 c 0,9.226331 0,9.226331 0,9.226331"
       id="path89" />
    <path
       style="opacity:0.497093;fill:#000000;stroke:#000000;stroke-width:0.536065;stroke-dasharray:none;stroke-opacity:1"
       d="m 17.403383,99.642538 c 0,9.226332 0,9.226332 0,9.226332"
       id="path90" />
    <path
       style="opacity:0.497093;fill:#000000;stroke:#000000;stroke-width:0.536065;stroke-dasharray:none;stroke-opacity:1"
       d="m 14.554289,99.452599 c 0,9.226331 0,9.226331 0,9.226331"
       id="path91" />
    <path
       style="opacity:0.497093;fill:#000000;stroke:#000000;stroke-width:0.536065;stroke-dasharray:none;stroke-opacity:1"
       d="m 12.275015,99.832477 c 0,9.226333 0,9.226333 0,9.226333"
       id="path92" />
    <path
       style="opacity:0.497093;fill:#000000;stroke:#000000;stroke-width:0.536065;stroke-dasharray:none;stroke-opacity:1"
       d="m 9.9957417,99.452599 c 0,9.226331 0,9.226331 0,9.226331"
       id="path93" />
    <path
       style="opacity:0.497093;fill:#000000;stroke:#000000;stroke-width:0.430643;stroke-dasharray:none;stroke-opacity:1"
       d="m 35.827518,111.03891 c 0,5.95429 0,5.95429 0,5.95429"
       id="path99" />
    <path
       style="opacity:0.497093;fill:#000000;stroke:#000000;stroke-width:0.430643;stroke-dasharray:none;stroke-opacity:1"
       d="m 33.548244,111.28407 c 0,5.95429 0,5.95429 0,5.95429"
       id="path100" />
    <path
       style="opacity:0.497093;fill:#000000;stroke:#000000;stroke-width:0.430643;stroke-dasharray:none;stroke-opacity:1"
       d="m 31.26897,111.03891 c 0,5.95429 0,5.95429 0,5.95429"
       id="path101" />
    <path
       style="opacity:0.497093;fill:#000000;stroke:#000000;stroke-width:0.430643;stroke-dasharray:none;stroke-opacity:1"
       d="m 28.989696,111.28407 c 0,5.95429 0,5.95429 0,5.95429"
       id="path102" />
    <path
       style="opacity:0.497093;fill:#000000;stroke:#000000;stroke-width:0.430643;stroke-dasharray:none;stroke-opacity:1"
       d="m 26.330541,111.16149 c 0,5.95429 0,5.95429 0,5.95429"
       id="path103" />
    <path
       style="opacity:0.497093;fill:#000000;stroke:#000000;stroke-width:0.430643;stroke-dasharray:none;stroke-opacity:1"
       d="m 24.051267,111.40665 c 0,5.95429 0,5.95429 0,5.95429"
       id="path104" />
    <path
       style="opacity:0.497093;fill:#000000;stroke:#000000;stroke-width:0.430643;stroke-dasharray:none;stroke-opacity:1"
       d="m 21.771993,111.16149 c 0,5.95429 0,5.95429 0,5.95429"
       id="path105" />
    <path
       style="opacity:0.497093;fill:#000000;stroke:#000000;stroke-width:0.430643;stroke-dasharray:none;stroke-opacity:1"
       d="m 19.492719,111.40665 c 0,5.95429 0,5.95429 0,5.95429"
       id="path106" />
    <path
       style="opacity:0.497093;fill:#000000;stroke:#000000;stroke-width:0.430643;stroke-dasharray:none;stroke-opacity:1"
       d="m 16.643626,111.28407 c 0,5.95429 0,5.95429 0,5.95429"
       id="path107" />
    <path
       style="opacity:0.497093;fill:#000000;stroke:#000000;stroke-width:0.430643;stroke-dasharray:none;stroke-opacity:1"
       d="m 14.364352,111.52923 c 0,5.95429 0,5.95429 0,5.95429"
       id="path108" />
    <path
       style="opacity:0.497093;fill:#000000;stroke:#000000;stroke-width:0.430643;stroke-dasharray:none;stroke-opacity:1"
       d="m 12.085078,111.28407 c 0,5.95429 0,5.95429 0,5.95429"
       id="path109" />
    <path
       style="opacity:0.497093;fill:#000000;stroke:#000000;stroke-width:0.430643;stroke-dasharray:none;stroke-opacity:1"
       d="m 9.8058044,111.52923 c 0,5.95429 0,5.95429 0,5.95429"
       id="path110" />
    <rect
       style="opacity:0.299419;fill:#000000;stroke:#000000;stroke-width:0.588663;stroke-dasharray:none;stroke-opacity:1"
       id="rect114"
       width="25.072021"
       height="8.5472794"
       x="9.5190744"
       y="99.532372" />
  </g>
  <path
     style="fill:#000000;stroke:#000000;stroke-width:0.588663;stroke-dasharray:none;stroke-opacity:1"
     d="m 202.63513,254.35014 c 0,-43.56106 0,-43.56106 0,-43.56106"
     id="path2" />
  <path
     style="fill:#000000;stroke:#000000;stroke-width:0.648842;stroke-opacity:1"
     d="m 203.01,210.93037 c -42.85466,0 -42.85466,0 -42.85466,0"
     id="path1-8" />
  <path
     style="fill:#000000;stroke:#000000;stroke-width:0.588663;stroke-dasharray:none;stroke-opacity:1"
     d="m 160.24855,210.76398 c 0,43.56107 0,43.56107 0,43.56107"
     id="path2-2" />
  <path
     style="fill:#000000;stroke:#000000;stroke-width:0.588663;stroke-dasharray:none;stroke-opacity:1"
     d="m 122.4366,210.76399 c 19.24928,0 19.24928,0 19.24928,0"
     id="path4" />
  <path
     style="opacity:1;fill:#000000;stroke:#000000;stroke-width:0.588663;stroke-dasharray:none;stroke-opacity:1"
     d="m 141.5711,210.76398 c 0,52.44988 0,52.44988 0,52.44988"
     id="path5" />
  <path
     style="fill:#000000;stroke:#000000;stroke-width:0.588663;stroke-dasharray:none;stroke-opacity:1"
     d="m 141.84542,262.82109 c -19.24928,0 -19.24928,0 -19.24928,0"
     id="path4-1" />
  <path
     style="fill:#000000;stroke:#000000;stroke-width:0.588663;stroke-dasharray:none;stroke-opacity:1"
     d="m 122.37814,263.15386 c 0,-52.44987 0,-52.44987 0,-52.44987"
     id="path5-7" />
  <path
     style="opacity:1;fill:#000000;stroke:#000000;stroke-width:0.588663;stroke-dasharray:none;stroke-opacity:1"
     d="m 101.13906,210.76398 c 21.07414,0 21.07414,0 21.07414,0"
     id="path6" />
  <path
     style="opacity:1;fill:#000000;stroke:#000000;stroke-width:0.588663;stroke-dasharray:none;stroke-opacity:1"
     d="m 122.27021,210.5976 c 0,50.74275 0,50.74275 0,50.74275"
     id="path7" />
  <path
     style="fill:#000000;stroke:#000000;stroke-width:0.588663;stroke-dasharray:none;stroke-opacity:1"
     d="m 122.2333,261.13373 c -21.07415,0 -21.07415,0 -21.07415,0"
     id="path6-2" />
  <path
     style="fill:#000000;stroke:#000000;stroke-width:0.588663;stroke-dasharray:none;stroke-opacity:1"
     d="m 101.43492,261.30011 c 0,-50.74276 0,-50.74276 0,-50.74276"
     id="path7-7" />
  <path
     style="opacity:1;fill:#000000;stroke:#000000;stroke-width:0.588663;stroke-dasharray:none;stroke-opacity:1"
     d="m 61.538952,220.91359 c 40.087948,0 40.087948,0 40.087948,0"
     id="path8" />
  <path
     style="opacity:1;fill:#000000;stroke:#000000;stroke-width:0.588663;stroke-dasharray:none;stroke-opacity:1"
     d="m 101.63823,220.58082 c 0,40.50002 0,40.50002 0,40.50002"
     id="path9" />
  <path
     style="fill:#000000;stroke:#000000;stroke-width:0.588663;stroke-dasharray:none;stroke-opacity:1"
     d="m 102.09439,261.02237 c -40.087949,0 -40.087949,0 -40.087949,0"
     id="path8-2" />
  <path
     style="fill:#000000;stroke:#000000;stroke-width:0.588663;stroke-dasharray:none;stroke-opacity:1"
     d="m 61.828735,261.18875 c 0,-40.50002 0,-40.50002 0,-40.50002"
     id="path9-3" />
  <path
     style="opacity:1;fill:#000000;stroke:#000000;stroke-width:0.588663;stroke-dasharray:none;stroke-opacity:1"
     d="m 19.942202,218.2514 c 42.089406,0 42.089406,0 42.089406,0"
     id="path10" />
  <path
     style="opacity:1;fill:#000000;stroke:#000000;stroke-width:0.588663;stroke-dasharray:none;stroke-opacity:1"
     d="m 61.871726,218.08502 c 0,43.14899 0,43.14899 0,43.14899"
     id="path11" />
  <path
     style="fill:#000000;stroke:#000000;stroke-width:0.588663;stroke-dasharray:none;stroke-opacity:1"
     d="m 62.072603,260.78655 c -42.089406,0 -42.089406,0 -42.089406,0"
     id="path10-6" />
  <path
     style="fill:#000000;stroke:#000000;stroke-width:0.588663;stroke-dasharray:none;stroke-opacity:1"
     d="m 20.143079,260.95294 c 0,-43.149 0,-43.149 0,-43.149"
     id="path11-8" />
  <path
     style="opacity:1;fill:#000000;stroke:#000000;stroke-width:0.588663;stroke-dasharray:none;stroke-opacity:1"
     d="m 9.6980368,198.92931 c 33.3771932,0 33.3771932,0 33.3771932,0"
     id="path12" />
  <path
     style="opacity:1;fill:#000000;stroke:#000000;stroke-width:0.588663;stroke-dasharray:none;stroke-opacity:1"
     d="m 52.886827,199.1169 c 0,19.30815 0,19.30815 0,19.30815"
     id="path13" />
  <path
     style="fill:#000000;stroke:#000000;stroke-width:0.588663;stroke-dasharray:none;stroke-opacity:1"
     d="m 53.335392,218.22222 c -33.377193,0 -33.377193,0 -33.377193,0"
     id="path12-1" />
  <path
     style="fill:#000000;stroke:#000000;stroke-width:0.588663;stroke-dasharray:none;stroke-opacity:1"
     d="m 20.057995,218.3886 c 0,-19.30814 0,-19.30814 0,-19.30814"
     id="path13-8" />
  <path
     style="opacity:1;fill:#000000;stroke:#000000;stroke-width:0.588663;stroke-dasharray:none;stroke-opacity:1"
     d="m 10.030811,158.66364 c 43.149,0 43.149,0 43.149,0"
     id="path14" />
  <path
     style="opacity:1;fill:#000000;stroke:#000000;stroke-width:0.588663;stroke-dasharray:none;stroke-opacity:1"
     d="m 52.958657,158.33088 c 0,41.0298 0,41.0298 0,41.0298"
     id="path15" />
  <path
     style="fill:#000000;stroke:#000000;stroke-width:0.588663;stroke-dasharray:none;stroke-opacity:1"
     d="m 53.071408,199.04844 c -43.1489987,0 -43.1489987,0 -43.1489987,0"
     id="path14-9" />
  <path
     style="fill:#000000;stroke:#000000;stroke-width:0.588663;stroke-dasharray:none;stroke-opacity:1"
     d="m 10.143562,199.38121 c 0,-41.0298 0,-41.0298 0,-41.0298"
     id="path15-5" />
  <path
     style="opacity:1;fill:#000000;stroke:#000000;stroke-width:0.588663;stroke-dasharray:none;stroke-opacity:1"
     d="m 202.50241,194.58009 c 0,16.30597 0,16.30597 0,16.30597"
     id="path16" />
  <path
     style="opacity:1;fill:#000000;stroke:#000000;stroke-width:0.588663;stroke-dasharray:none;stroke-opacity:1"
     d="m 159.62789,194.26371 c 42.85466,0 42.85466,0 42.85466,0"
     id="path18" />
  <path
     style="opacity:1;fill:#000000;stroke:#000000;stroke-width:0.588663;stroke-dasharray:none;stroke-opacity:1"
     d="m 202.54209,151.34949 c 0,43.20787 0,43.20787 0,43.20787"
     id="path19" />
  <path
     style="fill:#000000;stroke:#000000;stroke-width:0.588663;stroke-dasharray:none;stroke-opacity:1"
     d="m 202.85631,151.5411 c -42.85466,0 -42.85466,0 -42.85466,0"
     id="path18-2" />
  <path
     style="fill:#000000;stroke:#000000;stroke-width:0.588663;stroke-dasharray:none;stroke-opacity:1"
     d="m 159.94211,194.45532 c 0,-43.20787 0,-43.20787 0,-43.20787"
     id="path19-3" />
  <path
     style="opacity:1;fill:#000000;stroke:#000000;stroke-width:0.588663;stroke-dasharray:none;stroke-opacity:1"
     d="m 118.89233,151.50286 c 41.20642,0 41.20642,0 41.20642,0"
     id="path20" />
  <path
     style="opacity:1;fill:#000000;stroke:#000000;stroke-width:0.588663;stroke-dasharray:none;stroke-opacity:1"
     d="m 159.95927,151.34949 c 0,43.38448 0,43.38448 0,43.38448"
     id="path21" />
  <path
     style="fill:#000000;stroke:#000000;stroke-width:0.588663;stroke-dasharray:none;stroke-opacity:1"
     d="m 160.37953,194.3098 c -41.20641,0 -41.20641,0 -41.20641,0"
     id="path20-1" />
  <path
     style="fill:#000000;stroke:#000000;stroke-width:0.588663;stroke-dasharray:none;stroke-opacity:1"
     d="m 119.28792,194.47548 c 0,-43.38446 0,-43.38446 0,-43.38446"
     id="path21-3" />
  <path
     style="opacity:1;fill:#000000;stroke:#000000;stroke-width:0.588663;stroke-dasharray:none;stroke-opacity:1"
     d="m 101.49853,134.56512 c 51.09595,0 51.09595,0 51.09595,0"
     id="path23" />
  <path
     style="opacity:1;fill:#000000;stroke:#000000;stroke-width:0.588663;stroke-dasharray:none;stroke-opacity:1"
     d="m 152.2944,134.21114 c 0,17.13009 0,17.13009 0,17.13009"
     id="path24" />
  <path
     style="fill:#000000;stroke:#000000;stroke-width:0.588663;stroke-dasharray:none;stroke-opacity:1"
     d="m 152.94017,151.38838 c -51.09595,0 -51.09595,0 -51.09595,0"
     id="path23-2" />
  <path
     style="fill:#000000;stroke:#000000;stroke-width:0.588663;stroke-dasharray:none;stroke-opacity:1"
     d="m 101.95435,151.36247 c 0,-17.13009 0,-17.13009 0,-17.13009"
     id="path24-7" />
  <path
     style="opacity:1;fill:#000000;stroke:#000000;stroke-width:0.588663;stroke-dasharray:none;stroke-opacity:1"
     d="m 8.7056601,158.38279 c 43.9731279,0 43.9731279,0 43.9731279,0"
     id="path25" />
  <path
     style="opacity:1;fill:#000000;stroke:#000000;stroke-width:0.588663;stroke-dasharray:none;stroke-opacity:1"
     d="m 52.877088,117.57416 c 0,41.20642 0,41.20642 0,41.20642"
     id="path26" />
  <path
     style="fill:#000000;stroke:#000000;stroke-width:0.588663;stroke-dasharray:none;stroke-opacity:1"
     d="m 53.194681,118.07915 c -43.9731283,0 -43.9731283,0 -43.9731283,0"
     id="path25-1" />
  <path
     style="fill:#000000;stroke:#000000;stroke-width:0.588663;stroke-dasharray:none;stroke-opacity:1"
     d="m 9.0232534,158.88778 c 0,-41.20641 0,-41.20641 0,-41.20641"
     id="path26-9" />
  <path
     style="opacity:1;fill:#000000;stroke:#000000;stroke-width:0.588663;stroke-dasharray:none;stroke-opacity:1"
     d="m 9.3883327,98.155929 c 43.5021973,0 43.5021973,0 43.5021973,0"
     id="path28" />
  <path
     style="opacity:1;fill:#000000;stroke:#000000;stroke-width:0.588663;stroke-dasharray:none;stroke-opacity:1"
     d="m 52.674813,50.823985 c 0,47.622836 0,47.622836 0,47.622836"
     id="path29" />
  <path
     style="fill:#000000;stroke:#000000;stroke-width:0.588663;stroke-dasharray:none;stroke-opacity:1"
     d="m 52.979258,51.047512 c -43.5021952,0 -43.5021952,0 -43.5021952,0"
     id="path28-0" />
  <path
     style="fill:#000000;stroke:#000000;stroke-width:0.588663;stroke-dasharray:none;stroke-opacity:1"
     d="m 9.6927779,98.379461 c 0,-47.622842 0,-47.622842 0,-47.622842"
     id="path29-0" />
  <path
     style="opacity:1;fill:#000000;stroke:#000000;stroke-width:0.588663;stroke-dasharray:none;stroke-opacity:1"
     d="m 9.9951525,31.405753 c 0,20.01454 0,20.01454 0,20.01454"
     id="path30" />
  <path
     style="opacity:1;fill:#000000;stroke:#000000;stroke-width:0.588663;stroke-dasharray:none;stroke-opacity:1"
     d="m 9.590606,51.026249 c 43.502196,0 43.502196,0 43.502196,0"
     id="path31" />
  <path
     style="fill:#000000;stroke:#000000;stroke-width:0.588663;stroke-dasharray:none;stroke-opacity:1"
     d="m 52.698369,51.456696 c 0,-20.01454 0,-20.01454 0,-20.01454"
     id="path30-8" />
  <path
     style="fill:#000000;stroke:#000000;stroke-width:0.588663;stroke-dasharray:none;stroke-opacity:1"
     d="m 53.102917,31.836201 c -43.502198,0 -43.502198,0 -43.502198,0"
     id="path31-9" />
  <path
     style="opacity:1;fill:#000000;stroke:#000000;stroke-width:0.588663;stroke-dasharray:none;stroke-opacity:1"
     d="m 52.472541,31.810288 c 16.423698,0 16.423698,0 16.423698,0"
     id="path32" />
  <path
     style="opacity:1;fill:#000000;stroke:#000000;stroke-width:0.588663;stroke-dasharray:none;stroke-opacity:1"
     d="m 68.45213,31.810294 c 32.90626,0 32.90626,0 32.90626,0"
     id="path34" />
  <path
     style="opacity:1;fill:#000000;stroke:#000000;stroke-width:0.588663;stroke-dasharray:none;stroke-opacity:1"
     d="m 101.42268,31.608018 c 0,21.19187 0,21.19187 0,21.19187"
     id="path35" />
  <path
     style="fill:#000000;stroke:#000000;stroke-width:0.588663;stroke-dasharray:none;stroke-opacity:1"
     d="m 101.81005,52.431748 c -32.906261,0 -32.906261,0 -32.906261,0"
     id="path34-6" />
  <path
     style="fill:#000000;stroke:#000000;stroke-width:0.588663;stroke-dasharray:none;stroke-opacity:1"
     d="m 68.839507,52.634024 c 0,-21.191868 0,-21.191868 0,-21.191868"
     id="path35-0" />
  <path
     style="opacity:1;fill:#000000;stroke:#000000;stroke-width:0.588663;stroke-dasharray:none;stroke-opacity:1"
     d="m 68.654403,52.442168 c 33.259467,0 33.259467,0 33.259467,0"
     id="path36" />
  <path
     style="opacity:1;fill:#000000;stroke:#000000;stroke-width:0.588663;stroke-dasharray:none;stroke-opacity:1"
     d="m 101.62495,52.037622 c 0,19.89681 0,19.89681 0,19.89681"
     id="path37" />
  <path
     style="fill:#000000;stroke:#000000;stroke-width:0.588663;stroke-dasharray:none;stroke-opacity:1"
     d="m 102.01233,71.582477 c -33.259466,0 -33.259466,0 -33.259466,0"
     id="path36-8" />
  <path
     style="fill:#000000;stroke:#000000;stroke-width:0.588663;stroke-dasharray:none;stroke-opacity:1"
     d="m 69.04178,71.987022 c 0,-19.896809 0,-19.896809 0,-19.896809"
     id="path37-4" />
  <path
     style="opacity:1;fill:#000000;stroke:#000000;stroke-width:0.588663;stroke-dasharray:none;stroke-opacity:1"
     d="m 68.856677,71.860402 c 33.023993,0 33.023993,0 33.023993,0"
     id="path38" />
  <path
     style="opacity:1;fill:#000000;stroke:#000000;stroke-width:0.588663;stroke-dasharray:none;stroke-opacity:1"
     d="m 101.62494,71.455855 c 0,20.308875 0,20.308875 0,20.308875"
     id="path39" />
  <path
     style="fill:#000000;stroke:#000000;stroke-width:0.588663;stroke-dasharray:none;stroke-opacity:1"
     d="m 102.01232,91.459298 c -33.02399,0 -33.02399,0 -33.02399,0"
     id="path38-7" />
  <path
     style="fill:#000000;stroke:#000000;stroke-width:0.588663;stroke-dasharray:none;stroke-opacity:1"
     d="m 69.244052,91.863845 c 0,-20.308878 0,-20.308878 0,-20.308878"
     id="path39-8" />
  <path
     style="opacity:1;fill:#000000;stroke:#000000;stroke-width:0.613004;stroke-dasharray:none;stroke-opacity:1"
     d="m 69.463497,90.87409 c 0,43.91893 0,43.91893 0,43.91893"
     id="path40" />
  <path
     style="opacity:1;fill:#000000;stroke:#000000;stroke-width:0.588663;stroke-dasharray:none;stroke-opacity:1"
     d="m 69.463496,91.278637 c 32.553064,0 32.553064,0 32.553064,0"
     id="path41" />
  <path
     style="fill:#000000;stroke:#000000;stroke-width:0.614328;stroke-dasharray:none;stroke-opacity:1"
     d="m 101.65854,134.91823 c 0,-44.108866 0,-44.108866 0,-44.108866"
     id="path40-1" />
  <path
     style="fill:#000000;stroke:#000000;stroke-width:0.588663;stroke-dasharray:none;stroke-opacity:1"
     d="m 101.84847,134.70362 c -32.553058,0 -32.553058,0 -32.553058,0"
     id="path41-3" />
  <path
     style="opacity:1;fill:#000000;stroke:#000000;stroke-width:0.588663;stroke-dasharray:none;stroke-opacity:1"
     d="m 141.71699,225.84216 c 8.47675,0 8.47675,0 8.47675,0"
     id="path45" />
  <path
     style="opacity:0.5;fill:#000000;stroke:#000000;stroke-width:0.554708;stroke-dasharray:none;stroke-opacity:1"
     d="m 151.4457,226.56576 c 7.52705,0 7.52705,0 7.52705,0"
     id="path45-4" />
  <path
     style="opacity:0.5;fill:#000000;stroke:#000000;stroke-width:0.554708;stroke-dasharray:none;stroke-opacity:1"
     d="m 151.53307,228.65711 c 7.52705,0 7.52705,0 7.52705,0"
     id="path45-4-3" />
  <path
     style="opacity:1;fill:#000000;stroke:#000000;stroke-width:0.588663;stroke-dasharray:none;stroke-opacity:1"
     d="m 150.07433,225.65223 c 0,26.66643 0,26.66643 0,26.66643"
     id="path47" />
  <path
     style="opacity:0.5;fill:#000000;stroke:#000000;stroke-width:0.554708;stroke-dasharray:none;stroke-opacity:1"
     d="m 151.4457,230.93437 c 7.52705,0 7.52705,0 7.52705,0"
     id="path52" />
  <path
     style="opacity:0.5;fill:#000000;stroke:#000000;stroke-width:0.554708;stroke-dasharray:none;stroke-opacity:1"
     d="m 151.53307,233.02572 c 7.52705,0 7.52705,0 7.52705,0"
     id="path53" />
  <path
     style="opacity:0.5;fill:#000000;stroke:#000000;stroke-width:0.554708;stroke-dasharray:none;stroke-opacity:1"
     d="m 151.4457,235.11304 c 7.52705,0 7.52705,0 7.52705,0"
     id="path54" />
  <path
     style="opacity:0.5;fill:#000000;stroke:#000000;stroke-width:0.554708;stroke-dasharray:none;stroke-opacity:1"
     d="m 151.53307,237.20439 c 7.52705,0 7.52705,0 7.52705,0"
     id="path55" />
  <path
     style="opacity:0.5;fill:#000000;stroke:#000000;stroke-width:0.554708;stroke-dasharray:none;stroke-opacity:1"
     d="m 151.4457,239.48165 c 7.52705,0 7.52705,0 7.52705,0"
     id="path56" />
  <path
     style="opacity:0.5;fill:#000000;stroke:#000000;stroke-width:0.554708;stroke-dasharray:none;stroke-opacity:1"
     d="m 151.53307,241.57301 c 7.52705,0 7.52705,0 7.52705,0"
     id="path57" />
  <path
     style="opacity:0.5;fill:#000000;stroke:#000000;stroke-width:0.554708;stroke-dasharray:none;stroke-opacity:1"
     d="m 151.63564,243.85025 c 7.52704,0 7.52704,0 7.52704,0"
     id="path58" />
  <path
     style="opacity:0.5;fill:#000000;stroke:#000000;stroke-width:0.554708;stroke-dasharray:none;stroke-opacity:1"
     d="m 151.72301,245.94162 c 7.52706,0 7.52706,0 7.52706,0"
     id="path59" />
  <path
     style="opacity:0.5;fill:#000000;stroke:#000000;stroke-width:0.554708;stroke-dasharray:none;stroke-opacity:1"
     d="m 151.63564,248.21886 c 7.52704,0 7.52704,0 7.52704,0"
     id="path60" />
  <path
     style="opacity:0.5;fill:#000000;stroke:#000000;stroke-width:0.554708;stroke-dasharray:none;stroke-opacity:1"
     d="m 151.72301,250.31023 c 7.52706,0 7.52706,0 7.52706,0"
     id="path61" />
  <path
     style="opacity:0.5;fill:#000000;stroke:#000000;stroke-width:0.554708;stroke-dasharray:none;stroke-opacity:1"
     d="m 151.63564,252.39753 c 7.52704,0 7.52704,0 7.52704,0"
     id="path62" />
  <path
     style="opacity:0.5;fill:#000000;stroke:#000000;stroke-width:0.519863;stroke-dasharray:none;stroke-opacity:1"
     d="m 142.51854,228.08527 c 6.6111,0 6.6111,0 6.6111,0"
     id="path66" />
  <path
     style="opacity:0.5;fill:#000000;stroke:#000000;stroke-width:0.519863;stroke-dasharray:none;stroke-opacity:1"
     d="m 142.59529,230.17663 c 6.61109,0 6.61109,0 6.61109,0"
     id="path67" />
  <path
     style="opacity:0.5;fill:#000000;stroke:#000000;stroke-width:0.519863;stroke-dasharray:none;stroke-opacity:1"
     d="m 142.51854,232.45388 c 6.6111,0 6.6111,0 6.6111,0"
     id="path68" />
  <path
     style="opacity:0.5;fill:#000000;stroke:#000000;stroke-width:0.519863;stroke-dasharray:none;stroke-opacity:1"
     d="m 142.59529,234.54524 c 6.61109,0 6.61109,0 6.61109,0"
     id="path69" />
  <path
     style="opacity:0.5;fill:#000000;stroke:#000000;stroke-width:0.519863;stroke-dasharray:none;stroke-opacity:1"
     d="m 142.51854,236.63255 c 6.6111,0 6.6111,0 6.6111,0"
     id="path70" />
  <path
     style="opacity:0.5;fill:#000000;stroke:#000000;stroke-width:0.519863;stroke-dasharray:none;stroke-opacity:1"
     d="m 142.59529,238.72391 c 6.61109,0 6.61109,0 6.61109,0"
     id="path71" />
  <path
     style="opacity:0.5;fill:#000000;stroke:#000000;stroke-width:0.519863;stroke-dasharray:none;stroke-opacity:1"
     d="m 142.51854,241.00116 c 6.6111,0 6.6111,0 6.6111,0"
     id="path72" />
  <path
     style="opacity:0.5;fill:#000000;stroke:#000000;stroke-width:0.519863;stroke-dasharray:none;stroke-opacity:1"
     d="m 142.59529,243.09252 c 6.61109,0 6.61109,0 6.61109,0"
     id="path73" />
  <path
     style="opacity:0.5;fill:#000000;stroke:#000000;stroke-width:0.519863;stroke-dasharray:none;stroke-opacity:1"
     d="m 142.68537,245.36977 c 6.61109,0 6.61109,0 6.61109,0"
     id="path74" />
  <path
     style="opacity:0.5;fill:#000000;stroke:#000000;stroke-width:0.519863;stroke-dasharray:none;stroke-opacity:1"
     d="m 142.7621,247.46113 c 6.61111,0 6.61111,0 6.61111,0"
     id="path75" />
  <path
     style="opacity:0.5;fill:#000000;stroke:#000000;stroke-width:0.519863;stroke-dasharray:none;stroke-opacity:1"
     d="m 142.68537,249.73838 c 6.61109,0 6.61109,0 6.61109,0"
     id="path76" />
  <path
     style="opacity:0.5;fill:#000000;stroke:#000000;stroke-width:0.519863;stroke-dasharray:none;stroke-opacity:1"
     d="m 142.7621,251.82974 c 6.61111,0 6.61111,0 6.61111,0"
     id="path77" />
  <rect
     style="opacity:0.302326;fill:#000000;stroke:#000000;stroke-width:0.588663;stroke-dasharray:none;stroke-opacity:1"
     id="rect81"
     width="6.0780654"
     height="25.261961"
     x="142.85663"
     y="227.36168" />
  <rect
     style="opacity:1;fill:#000000;stroke:#000000;stroke-width:0.588663;stroke-dasharray:none;stroke-opacity:1;fill-opacity:1"
     id="rect116"
     width="6.5348005"
     height="6.5348005"
     x="66.507484"
     y="149.30556" />
  <circle
     style="opacity:1;fill:#000000;stroke:#000000;stroke-width:0.588663;stroke-dasharray:none;stroke-opacity:1;fill-opacity:1"
     id="path120"
     cx="79.041023"
     cy="180.7019"
     r="3.3366053" />
  <rect
     style="opacity:1;fill:#000000;fill-opacity:1;stroke:#000000;stroke-width:0.589;stroke-dasharray:none;stroke-opacity:1"
     id="rect124"
     width="4.0324707"
     height="10.997648"
     x="99.416878"
     y="184.33038" />
  <rect
     style="opacity:1;fill:#000000;fill-opacity:1;stroke:#000000;stroke-width:0.588663;stroke-dasharray:none;stroke-opacity:1"
     id="rect125"
     width="1.4616886"
     height="10.321613"
     x="91.939056"
     y="134.69446" />
  <path
     style="opacity:1;fill:none;fill-opacity:1;stroke:#000000;stroke-width:0.588663;stroke-dasharray:none;stroke-opacity:1"
     d="m 166.59907,211.21683 c 7.69413,4.44221 7.69413,4.44221 7.69413,4.44221"
     id="path125" />
  <path
     style="opacity:1;fill:none;fill-opacity:1;stroke:#000000;stroke-width:0.588663;stroke-dasharray:none;stroke-opacity:1"
     d="m 196.0397,194.12227 c -7.12432,-4.11323 -7.12432,-4.11323 -7.12432,-4.11323"
     id="path126" />
  <path
     style="opacity:1;fill:none;fill-opacity:1;stroke:#000000;stroke-width:0.588663;stroke-dasharray:none;stroke-opacity:1"
     d="m 152.16366,194.12227 c -7.18451,-4.148 -7.18451,-4.148 -7.18451,-4.148"
     id="path127" />
  <path
     style="opacity:1;fill:none;fill-opacity:1;stroke:#000000;stroke-width:0.588663;stroke-dasharray:none;stroke-opacity:1"
     d="m 126.90171,211.02689 c 4.95955,2.86339 5.83631,3.3696 5.83631,3.3696"
     id="path128" />
  <path
     style="opacity:1;fill:none;fill-opacity:1;stroke:#000000;stroke-width:0.588663;stroke-dasharray:none;stroke-opacity:1"
     d="m 104.86872,211.21683 c 5.61162,3.23986 5.61162,3.23986 5.61162,3.23986"
     id="path129" />
  <path
     style="opacity:1;fill:none;fill-opacity:1;stroke:#000000;stroke-width:0.588663;stroke-dasharray:none;stroke-opacity:1"
     d="m 67.640571,221.28362 c 6.899613,3.98349 6.899613,3.98349 6.899613,3.98349"
     id="path130" />
  <path
     style="opacity:1;fill:none;fill-opacity:1;stroke:#000000;stroke-width:0.588663;stroke-dasharray:none;stroke-opacity:1"
     d="m 60.422867,218.81441 c -5.01976,2.89815 -5.01976,2.89815 -5.01976,2.89815"
     id="path131" />
  <path
     style="opacity:1;fill:none;fill-opacity:1;stroke:#000000;stroke-width:0.588663;stroke-dasharray:none;stroke-opacity:1"
     d="m 52.255467,201.33997 c -3.404361,5.89652 -3.404361,5.89652 -3.404361,5.89652"
     id="path132" />
  <path
     style="opacity:1;fill:none;fill-opacity:1;stroke:#000000;stroke-width:0.588663;stroke-dasharray:none;stroke-opacity:1"
     d="m 52.825285,166.20116 c -3.992807,6.91574 -3.992807,6.91574 -3.992807,6.91574"
     id="path133" />
  <path
     style="opacity:1;fill:none;fill-opacity:1;stroke:#000000;stroke-width:0.588663;stroke-dasharray:none;stroke-opacity:1"
     d="m 52.37396,128.28141 c -3.955313,6.85081 -3.955313,6.85081 -3.955313,6.85081"
     id="path134" />
  <path
     style="opacity:1;fill:none;fill-opacity:1;stroke:#000000;stroke-width:0.588663;stroke-dasharray:none;stroke-opacity:1"
     d="m 69.565325,128.68434 c 3.416318,-5.91724 3.416318,-5.91724 3.416318,-5.91724"
     id="path135" />
  <path
     style="opacity:1;fill:none;fill-opacity:1;stroke:#000000;stroke-width:0.588663;stroke-dasharray:none;stroke-opacity:1"
     d="M 52.239652,60.456109 C 48.049301,67.71401 48.049301,67.71401 48.049301,67.71401"
     id="path136" />
  <path
     style="opacity:1;fill:none;fill-opacity:1;stroke:#000000;stroke-width:0.588663;stroke-dasharray:none;stroke-opacity:1"
     d="M 46.061506,50.785965 C 40.202425,47.403224 40.202425,47.403224 40.202425,47.403224"
     id="path137" />
</svg>
